<?xml version="1.0" encoding="UTF-8"?>
<svg xmlns="http://www.w3.org/2000/svg" xmlns:xlink="http://www.w3.org/1999/xlink" viewBox="0 0 48 48" width="48px" height="48px">
<g id="surface97696368">
<path style=" stroke:none;fill-rule:nonzero;fill:rgb(100%,100%,100%);fill-opacity:1;" d="M 24 14.089844 C 11.425781 14.089844 1.109375 23.714844 0 36 L 48 36 C 46.890625 23.714844 36.574219 14.089844 24 14.089844 Z M 33.179688 27.078125 C 33.179688 25.976562 34.074219 25.078125 35.179688 25.078125 C 36.28125 25.078125 37.175781 25.976562 37.175781 27.078125 C 37.175781 28.183594 36.28125 29.078125 35.179688 29.078125 C 34.074219 29.078125 33.179688 28.183594 33.179688 27.078125 Z M 12.820312 29.078125 C 11.71875 29.078125 10.824219 28.183594 10.824219 27.078125 C 10.824219 25.976562 11.71875 25.078125 12.820312 25.078125 C 13.925781 25.078125 14.820312 25.976562 14.820312 27.078125 C 14.820312 28.183594 13.925781 29.078125 12.820312 29.078125 Z M 12.820312 29.078125 "/>
<path style=" stroke:none;fill-rule:nonzero;fill:rgb(100%,100%,100%);fill-opacity:1;" d="M 34.039062 19.3125 C 33.898438 19.3125 33.757812 19.277344 33.628906 19.203125 C 33.234375 18.976562 33.101562 18.472656 33.328125 18.082031 L 38.523438 9.074219 C 38.75 8.679688 39.253906 8.542969 39.644531 8.773438 C 40.039062 9 40.171875 9.5 39.945312 9.894531 L 34.75 18.902344 C 34.597656 19.164062 34.320312 19.3125 34.039062 19.3125 Z M 34.039062 19.3125 "/>
<path style=" stroke:none;fill-rule:nonzero;fill:rgb(100%,100%,100%);fill-opacity:1;" d="M 13.960938 19.3125 C 13.679688 19.3125 13.402344 19.164062 13.25 18.902344 L 8.054688 9.894531 C 7.828125 9.5 7.960938 9 8.355469 8.773438 C 8.746094 8.542969 9.25 8.679688 9.476562 9.074219 L 14.671875 18.082031 C 14.898438 18.476562 14.765625 18.976562 14.371094 19.203125 C 14.242188 19.277344 14.101562 19.3125 13.960938 19.3125 Z M 13.960938 19.3125 "/>
</g>
</svg>
