<?xml version="1.0" encoding="UTF-8"?><svg id="Layer_2" xmlns="http://www.w3.org/2000/svg" viewBox="0 0 600.2 126.98"><defs><style>.cls-1{fill:#911e9e;}.cls-2{fill:#333;}.cls-3{fill:#6200ea;}.cls-4{fill:#7a0fc4;}</style></defs><g id="Layer_1-2"><g><g><path class="cls-2" d="M211.69,76.57l-9.33,.11v24.16h-7.03V32.2h17.24c18.12,0,26.8,8.79,26.8,21.41,0,15.04-10.65,22.73-27.67,22.95Zm.66-37.89h-9.99v31.52l9.77-.22c12.96-.22,19.99-5.38,19.99-16.03,0-9.77-6.92-15.26-19.77-15.26Z"/><path class="cls-2" d="M251.44,100.84V26.82l6.81-1.43V100.84h-6.81Z"/><path class="cls-2" d="M302.62,94.8c-3.4,4.17-8.79,7.47-14.72,7.47-9.22,0-15.92-5.93-15.92-13.95,0-9.11,7.14-16.58,30.53-17.9v-2.96c0-7.91-3.51-11.97-11.86-11.97-5.49,0-12.19,2.86-16.47,6.04l-1.54-6.37c4.5-3.19,12.08-6.04,18.67-6.04,11.64,0,18.12,5.27,18.01,18.01v24.16c0,3.62,.66,5.16,5.05,5.05l-.44,5.6c-6.59,.44-10.21-2.2-10.98-7.14h-.33Zm-.11-19.77c-17.24,1.98-23.39,5.82-23.39,12.52,0,5.38,4.39,8.79,10.32,8.79,5.38,0,9.99-3.07,13.07-6.59v-14.71Z"/><path class="cls-2" d="M347.53,100.29l-4.06,10.87c-4.61,12.3-9.44,15.81-16.25,15.81-3.84,0-6.7-.99-9.77-2.31l2.09-6.26c2.42,1.32,4.94,2.2,7.69,2.2,3.84,0,6.7-2.09,10.32-11.64l3.4-8.9-19.66-49.53h7.36l15.81,41.51,15.48-41.51h7.14l-19.55,49.75Z"/><path class="cls-2" d="M392.44,38.79v62.05h-7.03V38.79h-24.16v-6.59h55.35v6.59h-24.16Z"/><path class="cls-2" d="M435.37,102.27c-13.95,0-24.27-10.32-24.27-26.47s10.76-26.69,24.82-26.69,24.16,10.32,24.16,26.47-10.76,26.69-24.71,26.69Zm.22-47c-10.65,0-17.68,8.46-17.68,20.32s7.14,20.54,17.79,20.54,17.68-8.46,17.68-20.32-7.14-20.54-17.79-20.54Z"/><path class="cls-2" d="M479.51,100.84h-6.81V50.54l6.81-1.43v10.76c3.29-6.48,8.24-10.76,14.83-10.76,3.29,0,6.48,.99,8.79,2.31l-1.76,6.37c-2.2-1.32-4.83-2.2-7.69-2.2-5.27,0-10.21,3.95-14.17,12.96v32.29Z"/><path class="cls-2" d="M532,102.27c-15.15,0-24.6-10.87-24.6-26.47s10.43-26.69,24.71-26.69c6.15,0,11.42,1.54,15.7,4.28l-1.76,6.15c-3.84-2.53-8.68-4.06-13.95-4.06-10.87,0-17.68,8.13-17.68,20.1s7.14,20.32,17.79,20.32c5.05,0,10.1-1.65,13.95-4.17l1.43,6.26c-4.28,2.64-9.77,4.28-15.59,4.28Z"/><path class="cls-2" d="M593.39,100.84v-32.51c0-8.79-3.51-12.74-10.76-12.74-5.82,0-11.42,2.97-15.59,7.14v38.11h-6.81V26.82l6.81-1.43v31.74c5.27-5.27,11.86-8.02,17.46-8.02,9.77,0,15.7,6.26,15.7,17.24v34.48h-6.81Z"/></g><g><polygon class="cls-1" points="83.1 126.98 0 79.18 19.48 67.84 102.59 115.64 83.1 126.98"/><polygon class="cls-3" points="131.81 64.78 38.97 11.34 58.45 0 151.29 53.44 151.29 87.29 131.81 98.63 131.81 64.78"/><polygon class="cls-4" points="39.07 33.95 19.59 45.34 102.69 93.18 102.59 115.64 122.07 104.3 122.18 81.79 39.07 33.95"/></g></g></g></svg>